<?xml version="1.0" ?><svg xmlns="http://www.w3.org/2000/svg" xmlns:xlink="http://www.w3.org/1999/xlink" version="1.1" viewBox="0 0 512 512" style="enable-background:new 0 0 512 512;" xml:space="preserve"><g id="_x31_5_x2C__Graphics_x2C__Web_Design_x2C__Graphic_Design_x2C__Web_Design_x2C__Monitor"><g><g><path d="M471,1H41C18.944,1,1,18.944,1,41v350c0,22.056,17.944,40,40,40h165v20h-45c-27.57,0-50,22.43-50,50     c0,5.523,4.478,10,10,10h270c5.522,0,10-4.477,10-10c0-27.57-22.43-50-50-50h-45v-20h165c22.056,0,40-17.944,40-40V41     C511,18.944,493.056,1,471,1z M41,21h430c11.028,0,20,8.972,20,20v290H21V41C21,29.972,29.972,21,41,21z M379.286,491H132.714     c4.127-11.641,15.249-20,28.286-20h190C364.037,471,375.159,479.359,379.286,491z M471,411H41c-11.028,0-20-8.972-20-20v-40h470     v40C491,402.028,482.028,411,471,411z"/><path d="M131.708,310.997c7.819-0.182,77.029-2.408,98.762-24.139v0c15.666-15.667,20.824-37.91,15.507-57.924l135.78-135.781     c11.679-11.708,11.674-30.739-0.014-42.427c-11.704-11.688-30.737-11.686-42.428,0.004L203.546,186.499     c-20.015-5.32-42.261-0.162-57.93,15.506c-21.731,21.732-23.957,90.942-24.139,98.762     C121.345,306.479,126.022,311.139,131.708,310.997z M353.457,64.873c3.896-3.898,10.247-3.896,14.147,0     c3.896,3.895,3.892,10.246,0,14.147L236.943,209.682c-3.803-5.347-8.392-10.054-14.147-14.148L353.457,64.873z"/><circle cx="256" cy="380.944" r="9.922"/></g></g></g><g id="Layer_1"/></svg>